<?xml version="1.0" encoding="UTF-8" standalone="no"?><!DOCTYPE svg PUBLIC "-//W3C//DTD SVG 1.1//EN" "http://www.w3.org/Graphics/SVG/1.1/DTD/svg11.dtd"><!-- Generated by graphviz version 2.40.1 (20161225.0304)
 --><!-- Title: Tree Pages: 1 --><svg xmlns="http://www.w3.org/2000/svg" xmlns:xlink="http://www.w3.org/1999/xlink" width="852pt" height="511pt" viewBox="0.00 0.00 851.54 511.20">
<g id="graph0" class="graph" transform="scale(1 1) rotate(0) translate(4 507.2)">
<title>Tree</title>
<polygon fill="#ffffff" stroke="transparent" points="-4,4 -4,-507.2 847.5356,-507.2 847.5356,4 -4,4"/>
<!-- 0 -->
<g id="node1" class="node">
<title>0</title>
<polygon fill="none" stroke="#000000" points="601.3042,-503.3003 475.2314,-503.3003 475.2314,-427.8997 601.3042,-427.8997 601.3042,-503.3003"/>
<text text-anchor="middle" x="538.2678" y="-486.6" font-family="Times,serif" font-size="14.00" fill="#000000">proline &lt;= 755.0</text>
<text text-anchor="middle" x="538.2678" y="-469.8" font-family="Times,serif" font-size="14.00" fill="#000000">entropy = 1.547</text>
<text text-anchor="middle" x="538.2678" y="-453" font-family="Times,serif" font-size="14.00" fill="#000000">samples = 124</text>
<text text-anchor="middle" x="538.2678" y="-436.2" font-family="Times,serif" font-size="14.00" fill="#000000">value = [41, 53, 30]</text>
</g>
<!-- 1 -->
<g id="node2" class="node">
<title>1</title>
<polygon fill="none" stroke="#000000" points="536.1513,-392.1003 294.3843,-392.1003 294.3843,-316.6997 536.1513,-316.6997 536.1513,-392.1003"/>
<text text-anchor="middle" x="415.2678" y="-375.4" font-family="Times,serif" font-size="14.00" fill="#000000">od280/od315_of_diluted_wines &lt;= 2.19</text>
<text text-anchor="middle" x="415.2678" y="-358.6" font-family="Times,serif" font-size="14.00" fill="#000000">entropy = 0.927</text>
<text text-anchor="middle" x="415.2678" y="-341.8" font-family="Times,serif" font-size="14.00" fill="#000000">samples = 76</text>
<text text-anchor="middle" x="415.2678" y="-325" font-family="Times,serif" font-size="14.00" fill="#000000">value = [0, 50, 26]</text>
</g>
<!-- 0&#45;&gt;1 -->
<g id="edge1" class="edge">
<title>0-&gt;1</title>
<path fill="none" stroke="#000000" d="M496.6256,-427.9528C486.3066,-418.6237 475.152,-408.5392 464.508,-398.9164"/>
<polygon fill="#000000" stroke="#000000" points="466.6323,-396.1185 456.8671,-392.0085 461.9378,-401.3111 466.6323,-396.1185"/>
<text text-anchor="middle" x="458.1251" y="-412.7768" font-family="Times,serif" font-size="14.00" fill="#000000">True</text>
</g>
<!-- 10 -->
<g id="node11" class="node">
<title>10</title>
<polygon fill="none" stroke="#000000" points="693.3733,-392.1003 579.1623,-392.1003 579.1623,-316.6997 693.3733,-316.6997 693.3733,-392.1003"/>
<text text-anchor="middle" x="636.2678" y="-375.4" font-family="Times,serif" font-size="14.00" fill="#000000">flavanoids &lt;= 2.3</text>
<text text-anchor="middle" x="636.2678" y="-358.6" font-family="Times,serif" font-size="14.00" fill="#000000">entropy = 0.743</text>
<text text-anchor="middle" x="636.2678" y="-341.8" font-family="Times,serif" font-size="14.00" fill="#000000">samples = 48</text>
<text text-anchor="middle" x="636.2678" y="-325" font-family="Times,serif" font-size="14.00" fill="#000000">value = [41, 3, 4]</text>
</g>
<!-- 0&#45;&gt;10 -->
<g id="edge10" class="edge">
<title>0-&gt;10</title>
<path fill="none" stroke="#000000" d="M571.4461,-427.9528C579.4283,-418.8954 588.0381,-409.126 596.2937,-399.7584"/>
<polygon fill="#000000" stroke="#000000" points="599.1377,-401.8249 603.1236,-392.0085 593.886,-397.1967 599.1377,-401.8249"/>
<text text-anchor="middle" x="604.6979" y="-412.7589" font-family="Times,serif" font-size="14.00" fill="#000000">False</text>
</g>
<!-- 2 -->
<g id="node3" class="node">
<title>2</title>
<polygon fill="none" stroke="#000000" points="307.3044,-280.9003 195.2312,-280.9003 195.2312,-205.4997 307.3044,-205.4997 307.3044,-280.9003"/>
<text text-anchor="middle" x="251.2678" y="-264.2" font-family="Times,serif" font-size="14.00" fill="#000000">hue &lt;= 0.97</text>
<text text-anchor="middle" x="251.2678" y="-247.4" font-family="Times,serif" font-size="14.00" fill="#000000">entropy = 0.579</text>
<text text-anchor="middle" x="251.2678" y="-230.6" font-family="Times,serif" font-size="14.00" fill="#000000">samples = 29</text>
<text text-anchor="middle" x="251.2678" y="-213.8" font-family="Times,serif" font-size="14.00" fill="#000000">value = [0, 4, 25]</text>
</g>
<!-- 1&#45;&gt;2 -->
<g id="edge2" class="edge">
<title>1-&gt;2</title>
<path fill="none" stroke="#000000" d="M359.7449,-316.7528C345.4518,-307.0614 329.9565,-296.5548 315.2712,-286.5974"/>
<polygon fill="#000000" stroke="#000000" points="316.9746,-283.5237 306.7335,-280.8085 313.0461,-289.3174 316.9746,-283.5237"/>
</g>
<!-- 7 -->
<g id="node8" class="node">
<title>7</title>
<polygon fill="none" stroke="#000000" points="479.3732,-280.9003 351.1624,-280.9003 351.1624,-205.4997 479.3732,-205.4997 479.3732,-280.9003"/>
<text text-anchor="middle" x="415.2678" y="-264.2" font-family="Times,serif" font-size="14.00" fill="#000000">flavanoids &lt;= 0.875</text>
<text text-anchor="middle" x="415.2678" y="-247.4" font-family="Times,serif" font-size="14.00" fill="#000000">entropy = 0.149</text>
<text text-anchor="middle" x="415.2678" y="-230.6" font-family="Times,serif" font-size="14.00" fill="#000000">samples = 47</text>
<text text-anchor="middle" x="415.2678" y="-213.8" font-family="Times,serif" font-size="14.00" fill="#000000">value = [0, 46, 1]</text>
</g>
<!-- 1&#45;&gt;7 -->
<g id="edge7" class="edge">
<title>1-&gt;7</title>
<path fill="none" stroke="#000000" d="M415.2678,-316.7528C415.2678,-308.42 415.2678,-299.4845 415.2678,-290.8137"/>
<polygon fill="#000000" stroke="#000000" points="418.7679,-290.8084 415.2678,-280.8085 411.7679,-290.8085 418.7679,-290.8084"/>
</g>
<!-- 3 -->
<g id="node4" class="node">
<title>3</title>
<polygon fill="none" stroke="#000000" points="179.8732,-169.7003 58.6624,-169.7003 58.6624,-94.2997 179.8732,-94.2997 179.8732,-169.7003"/>
<text text-anchor="middle" x="119.2678" y="-153" font-family="Times,serif" font-size="14.00" fill="#000000">flavanoids &lt;= 1.58</text>
<text text-anchor="middle" x="119.2678" y="-136.2" font-family="Times,serif" font-size="14.00" fill="#000000">entropy = 0.235</text>
<text text-anchor="middle" x="119.2678" y="-119.4" font-family="Times,serif" font-size="14.00" fill="#000000">samples = 26</text>
<text text-anchor="middle" x="119.2678" y="-102.6" font-family="Times,serif" font-size="14.00" fill="#000000">value = [0, 1, 25]</text>
</g>
<!-- 2&#45;&gt;3 -->
<g id="edge3" class="edge">
<title>2-&gt;3</title>
<path fill="none" stroke="#000000" d="M206.5786,-205.5528C195.397,-196.1331 183.3012,-185.9433 171.7784,-176.2362"/>
<polygon fill="#000000" stroke="#000000" points="173.8139,-173.3745 163.911,-169.6085 169.3039,-178.7281 173.8139,-173.3745"/>
</g>
<!-- 6 -->
<g id="node7" class="node">
<title>6</title>
<polygon fill="none" stroke="#000000" points="303.8044,-161.4014 198.7312,-161.4014 198.7312,-102.5986 303.8044,-102.5986 303.8044,-161.4014"/>
<text text-anchor="middle" x="251.2678" y="-144.6" font-family="Times,serif" font-size="14.00" fill="#000000">entropy = 0.0</text>
<text text-anchor="middle" x="251.2678" y="-127.8" font-family="Times,serif" font-size="14.00" fill="#000000">samples = 3</text>
<text text-anchor="middle" x="251.2678" y="-111" font-family="Times,serif" font-size="14.00" fill="#000000">value = [0, 3, 0]</text>
</g>
<!-- 2&#45;&gt;6 -->
<g id="edge6" class="edge">
<title>2-&gt;6</title>
<path fill="none" stroke="#000000" d="M251.2678,-205.5528C251.2678,-194.6662 251.2678,-182.751 251.2678,-171.7411"/>
<polygon fill="#000000" stroke="#000000" points="254.7679,-171.5258 251.2678,-161.5258 247.7679,-171.5259 254.7679,-171.5258"/>
</g>
<!-- 4 -->
<g id="node5" class="node">
<title>4</title>
<polygon fill="none" stroke="#000000" points="112.3044,-58.6014 .2312,-58.6014 .2312,.2014 112.3044,.2014 112.3044,-58.6014"/>
<text text-anchor="middle" x="56.2678" y="-41.8" font-family="Times,serif" font-size="14.00" fill="#000000">entropy = 0.0</text>
<text text-anchor="middle" x="56.2678" y="-25" font-family="Times,serif" font-size="14.00" fill="#000000">samples = 25</text>
<text text-anchor="middle" x="56.2678" y="-8.2" font-family="Times,serif" font-size="14.00" fill="#000000">value = [0, 0, 25]</text>
</g>
<!-- 3&#45;&gt;4 -->
<g id="edge4" class="edge">
<title>3-&gt;4</title>
<path fill="none" stroke="#000000" d="M96.1667,-94.3048C90.741,-85.4515 84.9567,-76.013 79.5243,-67.1487"/>
<polygon fill="#000000" stroke="#000000" points="82.4449,-65.216 74.2354,-58.5186 76.4765,-68.8737 82.4449,-65.216"/>
</g>
<!-- 5 -->
<g id="node6" class="node">
<title>5</title>
<polygon fill="none" stroke="#000000" points="235.8044,-58.6014 130.7312,-58.6014 130.7312,.2014 235.8044,.2014 235.8044,-58.6014"/>
<text text-anchor="middle" x="183.2678" y="-41.8" font-family="Times,serif" font-size="14.00" fill="#000000">entropy = 0.0</text>
<text text-anchor="middle" x="183.2678" y="-25" font-family="Times,serif" font-size="14.00" fill="#000000">samples = 1</text>
<text text-anchor="middle" x="183.2678" y="-8.2" font-family="Times,serif" font-size="14.00" fill="#000000">value = [0, 1, 0]</text>
</g>
<!-- 3&#45;&gt;5 -->
<g id="edge5" class="edge">
<title>3-&gt;5</title>
<path fill="none" stroke="#000000" d="M142.7356,-94.3048C148.2474,-85.4515 154.1235,-76.013 159.6422,-67.1487"/>
<polygon fill="#000000" stroke="#000000" points="162.701,-68.8577 165.015,-58.5186 156.7585,-65.1581 162.701,-68.8577"/>
</g>
<!-- 8 -->
<g id="node9" class="node">
<title>8</title>
<polygon fill="none" stroke="#000000" points="427.8044,-161.4014 322.7312,-161.4014 322.7312,-102.5986 427.8044,-102.5986 427.8044,-161.4014"/>
<text text-anchor="middle" x="375.2678" y="-144.6" font-family="Times,serif" font-size="14.00" fill="#000000">entropy = 0.0</text>
<text text-anchor="middle" x="375.2678" y="-127.8" font-family="Times,serif" font-size="14.00" fill="#000000">samples = 1</text>
<text text-anchor="middle" x="375.2678" y="-111" font-family="Times,serif" font-size="14.00" fill="#000000">value = [0, 0, 1]</text>
</g>
<!-- 7&#45;&gt;8 -->
<g id="edge8" class="edge">
<title>7-&gt;8</title>
<path fill="none" stroke="#000000" d="M401.7256,-205.5528C397.7289,-194.4417 393.3466,-182.2592 389.3186,-171.0613"/>
<polygon fill="#000000" stroke="#000000" points="392.5669,-169.7509 385.8886,-161.5258 385.9801,-172.1203 392.5669,-169.7509"/>
</g>
<!-- 9 -->
<g id="node10" class="node">
<title>9</title>
<polygon fill="none" stroke="#000000" points="558.3044,-161.4014 446.2312,-161.4014 446.2312,-102.5986 558.3044,-102.5986 558.3044,-161.4014"/>
<text text-anchor="middle" x="502.2678" y="-144.6" font-family="Times,serif" font-size="14.00" fill="#000000">entropy = 0.0</text>
<text text-anchor="middle" x="502.2678" y="-127.8" font-family="Times,serif" font-size="14.00" fill="#000000">samples = 46</text>
<text text-anchor="middle" x="502.2678" y="-111" font-family="Times,serif" font-size="14.00" fill="#000000">value = [0, 46, 0]</text>
</g>
<!-- 7&#45;&gt;9 -->
<g id="edge9" class="edge">
<title>7-&gt;9</title>
<path fill="none" stroke="#000000" d="M444.722,-205.5528C453.7662,-193.9928 463.7179,-181.273 472.7653,-169.7089"/>
<polygon fill="#000000" stroke="#000000" points="475.7622,-171.5585 479.1676,-161.5258 470.249,-167.2451 475.7622,-171.5585"/>
</g>
<!-- 11 -->
<g id="node12" class="node">
<title>11</title>
<polygon fill="none" stroke="#000000" points="713.5446,-280.9003 558.991,-280.9003 558.991,-205.4997 713.5446,-205.4997 713.5446,-280.9003"/>
<text text-anchor="middle" x="636.2678" y="-264.2" font-family="Times,serif" font-size="14.00" fill="#000000">color_intensity &lt;= 3.975</text>
<text text-anchor="middle" x="636.2678" y="-247.4" font-family="Times,serif" font-size="14.00" fill="#000000">entropy = 1.406</text>
<text text-anchor="middle" x="636.2678" y="-230.6" font-family="Times,serif" font-size="14.00" fill="#000000">samples = 8</text>
<text text-anchor="middle" x="636.2678" y="-213.8" font-family="Times,serif" font-size="14.00" fill="#000000">value = [1, 3, 4]</text>
</g>
<!-- 10&#45;&gt;11 -->
<g id="edge11" class="edge">
<title>10-&gt;11</title>
<path fill="none" stroke="#000000" d="M636.2678,-316.7528C636.2678,-308.42 636.2678,-299.4845 636.2678,-290.8137"/>
<polygon fill="#000000" stroke="#000000" points="639.7679,-290.8084 636.2678,-280.8085 632.7679,-290.8085 639.7679,-290.8084"/>
</g>
<!-- 16 -->
<g id="node17" class="node">
<title>16</title>
<polygon fill="none" stroke="#000000" points="843.3044,-272.6014 731.2312,-272.6014 731.2312,-213.7986 843.3044,-213.7986 843.3044,-272.6014"/>
<text text-anchor="middle" x="787.2678" y="-255.8" font-family="Times,serif" font-size="14.00" fill="#000000">entropy = 0.0</text>
<text text-anchor="middle" x="787.2678" y="-239" font-family="Times,serif" font-size="14.00" fill="#000000">samples = 40</text>
<text text-anchor="middle" x="787.2678" y="-222.2" font-family="Times,serif" font-size="14.00" fill="#000000">value = [40, 0, 0]</text>
</g>
<!-- 10&#45;&gt;16 -->
<g id="edge16" class="edge">
<title>10-&gt;16</title>
<path fill="none" stroke="#000000" d="M687.3895,-316.7528C704.0013,-304.5194 722.377,-290.9871 738.79,-278.9002"/>
<polygon fill="#000000" stroke="#000000" points="741.1975,-281.4739 747.1743,-272.7258 737.0466,-275.8374 741.1975,-281.4739"/>
</g>
<!-- 12 -->
<g id="node13" class="node">
<title>12</title>
<polygon fill="none" stroke="#000000" points="695.7685,-169.7003 576.7671,-169.7003 576.7671,-94.2997 695.7685,-94.2997 695.7685,-169.7003"/>
<text text-anchor="middle" x="636.2678" y="-153" font-family="Times,serif" font-size="14.00" fill="#000000">alcohol &lt;= 12.885</text>
<text text-anchor="middle" x="636.2678" y="-136.2" font-family="Times,serif" font-size="14.00" fill="#000000">entropy = 0.811</text>
<text text-anchor="middle" x="636.2678" y="-119.4" font-family="Times,serif" font-size="14.00" fill="#000000">samples = 4</text>
<text text-anchor="middle" x="636.2678" y="-102.6" font-family="Times,serif" font-size="14.00" fill="#000000">value = [1, 3, 0]</text>
</g>
<!-- 11&#45;&gt;12 -->
<g id="edge12" class="edge">
<title>11-&gt;12</title>
<path fill="none" stroke="#000000" d="M636.2678,-205.5528C636.2678,-197.22 636.2678,-188.2845 636.2678,-179.6137"/>
<polygon fill="#000000" stroke="#000000" points="639.7679,-179.6084 636.2678,-169.6085 632.7679,-179.6085 639.7679,-179.6084"/>
</g>
<!-- 15 -->
<g id="node16" class="node">
<title>15</title>
<polygon fill="none" stroke="#000000" points="818.8044,-161.4014 713.7312,-161.4014 713.7312,-102.5986 818.8044,-102.5986 818.8044,-161.4014"/>
<text text-anchor="middle" x="766.2678" y="-144.6" font-family="Times,serif" font-size="14.00" fill="#000000">entropy = 0.0</text>
<text text-anchor="middle" x="766.2678" y="-127.8" font-family="Times,serif" font-size="14.00" fill="#000000">samples = 4</text>
<text text-anchor="middle" x="766.2678" y="-111" font-family="Times,serif" font-size="14.00" fill="#000000">value = [0, 0, 4]</text>
</g>
<!-- 11&#45;&gt;15 -->
<g id="edge15" class="edge">
<title>11-&gt;15</title>
<path fill="none" stroke="#000000" d="M680.2799,-205.5528C694.4502,-193.4316 710.1114,-180.0353 724.1426,-168.0332"/>
<polygon fill="#000000" stroke="#000000" points="726.4261,-170.6858 731.7502,-161.5258 721.8759,-165.3664 726.4261,-170.6858"/>
</g>
<!-- 13 -->
<g id="node14" class="node">
<title>13</title>
<polygon fill="none" stroke="#000000" points="626.8044,-58.6014 521.7312,-58.6014 521.7312,.2014 626.8044,.2014 626.8044,-58.6014"/>
<text text-anchor="middle" x="574.2678" y="-41.8" font-family="Times,serif" font-size="14.00" fill="#000000">entropy = 0.0</text>
<text text-anchor="middle" x="574.2678" y="-25" font-family="Times,serif" font-size="14.00" fill="#000000">samples = 3</text>
<text text-anchor="middle" x="574.2678" y="-8.2" font-family="Times,serif" font-size="14.00" fill="#000000">value = [0, 3, 0]</text>
</g>
<!-- 12&#45;&gt;13 -->
<g id="edge13" class="edge">
<title>12-&gt;13</title>
<path fill="none" stroke="#000000" d="M613.5333,-94.3048C608.1938,-85.4515 602.5013,-76.013 597.1551,-67.1487"/>
<polygon fill="#000000" stroke="#000000" points="600.1119,-65.2742 591.9502,-58.5186 594.1177,-68.8894 600.1119,-65.2742"/>
</g>
<!-- 14 -->
<g id="node15" class="node">
<title>14</title>
<polygon fill="none" stroke="#000000" points="750.8044,-58.6014 645.7312,-58.6014 645.7312,.2014 750.8044,.2014 750.8044,-58.6014"/>
<text text-anchor="middle" x="698.2678" y="-41.8" font-family="Times,serif" font-size="14.00" fill="#000000">entropy = 0.0</text>
<text text-anchor="middle" x="698.2678" y="-25" font-family="Times,serif" font-size="14.00" fill="#000000">samples = 1</text>
<text text-anchor="middle" x="698.2678" y="-8.2" font-family="Times,serif" font-size="14.00" fill="#000000">value = [1, 0, 0]</text>
</g>
<!-- 12&#45;&gt;14 -->
<g id="edge14" class="edge">
<title>12-&gt;14</title>
<path fill="none" stroke="#000000" d="M659.0023,-94.3048C664.3418,-85.4515 670.0343,-76.013 675.3805,-67.1487"/>
<polygon fill="#000000" stroke="#000000" points="678.4179,-68.8894 680.5854,-58.5186 672.4237,-65.2742 678.4179,-68.8894"/>
</g>
</g>
</svg>